<?xml version="1.0" standalone="no"?>
<svg xmlns:xlink="http://www.w3.org/1999/xlink" id="wave" style="transform:rotate(180deg); transition: 0.3s" viewBox="0 0 1440 100" version="1.1" xmlns="http://www.w3.org/2000/svg"><defs><linearGradient id="sw-gradient-0" x1="0" x2="0" y1="1" y2="0"><stop stop-color="rgba(255, 249, 234, 1)" offset="0%"/><stop stop-color="rgba(255, 249, 234, 1)" offset="100%"/></linearGradient></defs><path style="transform:translate(0, 0px); opacity:1" fill="url(#sw-gradient-0)" d="M0,30L60,36.7C120,43,240,57,360,56.7C480,57,600,43,720,46.7C840,50,960,70,1080,70C1200,70,1320,50,1440,48.3C1560,47,1680,63,1800,58.3C1920,53,2040,27,2160,21.7C2280,17,2400,33,2520,38.3C2640,43,2760,37,2880,31.7C3000,27,3120,23,3240,26.7C3360,30,3480,40,3600,51.7C3720,63,3840,77,3960,76.7C4080,77,4200,63,4320,61.7C4440,60,4560,70,4680,65C4800,60,4920,40,5040,38.3C5160,37,5280,53,5400,60C5520,67,5640,63,5760,56.7C5880,50,6000,40,6120,45C6240,50,6360,70,6480,68.3C6600,67,6720,43,6840,40C6960,37,7080,53,7200,65C7320,77,7440,83,7560,85C7680,87,7800,83,7920,83.3C8040,83,8160,87,8280,78.3C8400,70,8520,50,8580,40L8640,30L8640,100L8580,100C8520,100,8400,100,8280,100C8160,100,8040,100,7920,100C7800,100,7680,100,7560,100C7440,100,7320,100,7200,100C7080,100,6960,100,6840,100C6720,100,6600,100,6480,100C6360,100,6240,100,6120,100C6000,100,5880,100,5760,100C5640,100,5520,100,5400,100C5280,100,5160,100,5040,100C4920,100,4800,100,4680,100C4560,100,4440,100,4320,100C4200,100,4080,100,3960,100C3840,100,3720,100,3600,100C3480,100,3360,100,3240,100C3120,100,3000,100,2880,100C2760,100,2640,100,2520,100C2400,100,2280,100,2160,100C2040,100,1920,100,1800,100C1680,100,1560,100,1440,100C1320,100,1200,100,1080,100C960,100,840,100,720,100C600,100,480,100,360,100C240,100,120,100,60,100L0,100Z"/></svg>