<?xml version="1.0" standalone="no"?>
<svg xmlns:xlink="http://www.w3.org/1999/xlink" id="wave" style="transform:rotate(0deg); transition: 0.3s" viewBox="0 0 1440 360" version="1.1" xmlns="http://www.w3.org/2000/svg"><defs><linearGradient id="sw-gradient-0" x1="0" x2="0" y1="1" y2="0"><stop stop-color="rgba(16, 40, 179, 1)" offset="0%"/><stop stop-color="rgba(16, 40, 179, 1)" offset="100%"/></linearGradient></defs><path style="transform:translate(0, 0px); opacity:1" fill="url(#sw-gradient-0)" d="M0,108L80,144C160,180,320,252,480,270C640,288,800,252,960,252C1120,252,1280,288,1440,306C1600,324,1760,324,1920,306C2080,288,2240,252,2400,216C2560,180,2720,144,2880,156C3040,168,3200,228,3360,234C3520,240,3680,192,3840,144C4000,96,4160,48,4320,78C4480,108,4640,216,4800,246C4960,276,5120,228,5280,198C5440,168,5600,156,5760,168C5920,180,6080,216,6240,192C6400,168,6560,84,6720,48C6880,12,7040,24,7200,42C7360,60,7520,84,7680,84C7840,84,8000,60,8160,72C8320,84,8480,132,8640,138C8800,144,8960,108,9120,120C9280,132,9440,192,9600,204C9760,216,9920,180,10080,192C10240,204,10400,264,10560,294C10720,324,10880,324,11040,306C11200,288,11360,252,11440,234L11520,216L11520,360L11440,360C11360,360,11200,360,11040,360C10880,360,10720,360,10560,360C10400,360,10240,360,10080,360C9920,360,9760,360,9600,360C9440,360,9280,360,9120,360C8960,360,8800,360,8640,360C8480,360,8320,360,8160,360C8000,360,7840,360,7680,360C7520,360,7360,360,7200,360C7040,360,6880,360,6720,360C6560,360,6400,360,6240,360C6080,360,5920,360,5760,360C5600,360,5440,360,5280,360C5120,360,4960,360,4800,360C4640,360,4480,360,4320,360C4160,360,4000,360,3840,360C3680,360,3520,360,3360,360C3200,360,3040,360,2880,360C2720,360,2560,360,2400,360C2240,360,2080,360,1920,360C1760,360,1600,360,1440,360C1280,360,1120,360,960,360C800,360,640,360,480,360C320,360,160,360,80,360L0,360Z"/></svg>