<?xml version="1.0" standalone="no"?>
<svg xmlns:xlink="http://www.w3.org/1999/xlink" id="wave" style="transform:rotate(180deg); transition: 0.3s" viewBox="0 0 1440 100" version="1.1" xmlns="http://www.w3.org/2000/svg"><defs><linearGradient id="sw-gradient-0" x1="0" x2="0" y1="1" y2="0"><stop stop-color="rgba(255, 249, 234, 1)" offset="0%"/><stop stop-color="rgba(255, 249, 234, 1)" offset="100%"/></linearGradient></defs><path style="transform:translate(0, 0px); opacity:1" fill="url(#sw-gradient-0)" d="M0,30L48,40C96,50,192,70,288,75C384,80,480,70,576,70C672,70,768,80,864,85C960,90,1056,90,1152,85C1248,80,1344,70,1440,60C1536,50,1632,40,1728,43.3C1824,47,1920,63,2016,65C2112,67,2208,53,2304,40C2400,27,2496,13,2592,21.7C2688,30,2784,60,2880,68.3C2976,77,3072,63,3168,55C3264,47,3360,43,3456,46.7C3552,50,3648,60,3744,53.3C3840,47,3936,23,4032,13.3C4128,3,4224,7,4320,11.7C4416,17,4512,23,4608,23.3C4704,23,4800,17,4896,20C4992,23,5088,37,5184,38.3C5280,40,5376,30,5472,33.3C5568,37,5664,53,5760,56.7C5856,60,5952,50,6048,53.3C6144,57,6240,73,6336,81.7C6432,90,6528,90,6624,85C6720,80,6816,70,6864,65L6912,60L6912,100L6864,100C6816,100,6720,100,6624,100C6528,100,6432,100,6336,100C6240,100,6144,100,6048,100C5952,100,5856,100,5760,100C5664,100,5568,100,5472,100C5376,100,5280,100,5184,100C5088,100,4992,100,4896,100C4800,100,4704,100,4608,100C4512,100,4416,100,4320,100C4224,100,4128,100,4032,100C3936,100,3840,100,3744,100C3648,100,3552,100,3456,100C3360,100,3264,100,3168,100C3072,100,2976,100,2880,100C2784,100,2688,100,2592,100C2496,100,2400,100,2304,100C2208,100,2112,100,2016,100C1920,100,1824,100,1728,100C1632,100,1536,100,1440,100C1344,100,1248,100,1152,100C1056,100,960,100,864,100C768,100,672,100,576,100C480,100,384,100,288,100C192,100,96,100,48,100L0,100Z"/></svg>